<?xml version="1.0" encoding="UTF-8"?>
<svg version="1.1" xmlns="http://www.w3.org/2000/svg" width="500" height="500">
<path d="M0 0 C9.20180976 6.75830397 16.26636918 15.04599726 18.57421875 26.45703125 C19.44426837 34.93380043 18.45450523 41.37187704 13.57421875 48.45703125 C10.10774725 52.01472569 6.27820091 53.8890372 1.57421875 55.45703125 C-3.92839148 55.45703125 -8.19471156 52.77277019 -12.42578125 49.45703125 C-14.70195081 46.6829496 -15.33710101 45.05245574 -15.86328125 41.51953125 C-15.29814294 37.56356309 -13.98741984 35.50330416 -11.42578125 32.45703125 C-7.52724109 30.13898035 -3.89444504 29.97824584 0.57421875 30.45703125 C3.51171875 32.45703125 3.51171875 32.45703125 5.57421875 34.45703125 C5.90421875 34.12703125 6.23421875 33.79703125 6.57421875 33.45703125 C6.27775501 27.62657771 5.50952436 23.99776849 1.57421875 19.45703125 C-4.53046957 14.81897236 -9.67811457 12.83221942 -17.42578125 13.45703125 C-24.50215778 15.52050713 -30.95976594 18.3157338 -34.86328125 24.87109375 C-39.74846655 34.72473456 -40.53194232 43.8868115 -37.42578125 54.45703125 C-34.88445358 60.7460756 -31.29771065 65.91794202 -25.42578125 69.45703125 C-14.13494757 74.16154528 -0.10058554 75.16414256 11.44921875 70.66796875 C23.82182867 63.6174006 31.14745674 46.22634271 38.37255859 34.55102539 C41.62545722 29.35585347 44.92691914 24.39874367 48.94921875 19.76953125 C49.42125732 19.22337158 49.8932959 18.67721191 50.37963867 18.11450195 C60.53238335 6.55170139 74.42977829 -4.5351843 90.29296875 -5.8515625 C101.38040717 -6.33500335 110.89762084 -4.45104754 119.6640625 2.6953125 C128.96194965 11.27066445 134.04474828 18.72937579 134.57421875 31.45703125 C134.68636719 32.49537109 134.68636719 32.49537109 134.80078125 33.5546875 C135.25417747 39.55622172 132.99322194 43.7424058 129.57421875 48.45703125 C125.96408518 52.54322639 121.99605591 54.72186689 116.57421875 55.45703125 C110.65244081 54.63916332 106.23648473 52.26524226 102.61328125 47.48828125 C100.73702511 43.82041211 100.56329705 40.42638556 101.57421875 36.45703125 C104.10390349 33.17527807 105.65153206 31.76459348 109.57421875 30.45703125 C114.1865489 29.92483931 116.79157764 30.28577374 120.51171875 32.95703125 C122.02765625 34.19453125 122.02765625 34.19453125 123.57421875 35.45703125 C122.40966873 27.70357981 121.06448237 22.14744279 114.57421875 17.14453125 C108.35664141 13.647144 101.26842405 13.56871809 94.32421875 14.8828125 C87.9933538 16.89830271 83.73195491 21.0071994 80.25 26.57421875 C76.32144975 34.76214454 76.24345156 44.70781796 78.26953125 53.4609375 C81.44144467 62.19036309 86.44733162 67.41816382 94.73876953 71.42944336 C99.55003061 73.17308017 104.14003255 73.02558851 109.19921875 72.83203125 C110.1840625 72.81785156 111.16890625 72.80367188 112.18359375 72.7890625 C122.88690242 73.00109653 122.88690242 73.00109653 132.57421875 69.45703125 C132.87247559 68.85528076 133.17073242 68.25353027 133.47802734 67.63354492 C134.66358386 65.27959474 136.067582 63.4811617 137.73828125 61.4453125 C141.9467671 56.12102272 145.42644736 50.43605145 148.94921875 44.64453125 C154.12904566 36.25481406 159.28948935 28.07378422 165.57421875 20.45703125 C166.62416016 19.16345703 166.62416016 19.16345703 167.6953125 17.84375 C175.98750089 8.10301534 185.66709752 1.10276051 197.57421875 -3.54296875 C199.05921875 -4.19265625 199.05921875 -4.19265625 200.57421875 -4.85546875 C212.43123223 -7.572701 224.33783958 -4.72636531 234.57421875 1.45703125 C241.51022439 5.97184396 247.96303156 13.90738649 250.27734375 21.87890625 C251.41705686 31.77641486 251.90371172 41.18253784 245.57421875 49.45703125 C241.25238329 53.4979474 236.50569256 54.82448866 230.6328125 54.73828125 C226.17081 54.1286718 223.38597566 51.20470209 220.19921875 48.26953125 C217.8959909 44.28317535 217.8085838 40.95310031 218.57421875 36.45703125 C219.94921875 33.45703125 219.94921875 33.45703125 222.57421875 31.45703125 C227.23080621 30.20061642 231.11342781 29.81793521 235.57421875 31.76953125 C237.57421875 33.45703125 237.57421875 33.45703125 239.57421875 35.45703125 C240.18473207 28.61928202 238.88486074 24.80080232 234.57421875 19.45703125 C229.93296192 14.81577442 225.12037431 13.7034334 218.69921875 13.08203125 C211.54168506 13.303541 205.26827939 17.00963373 200.078125 21.7421875 C194.0144786 28.65631937 193.13146201 36.71274447 193.2890625 45.58203125 C193.67611575 50.84171381 195.08542134 54.85232245 197.57421875 59.45703125 C198.13109375 60.52953125 198.68796875 61.60203125 199.26171875 62.70703125 C205.29680762 69.88389369 211.72169324 72.29684803 220.94921875 73.28125 C228.39056345 73.64209107 235.50578328 72.98470922 242.76171875 71.33203125 C249.9376818 69.76848808 256.76865151 70.77062313 263.57421875 73.45703125 C260.71723021 75.0348681 258.29065105 75.78170568 255.07421875 76.26953125 C245.0261022 78.18554765 235.86306228 83.18183605 226.71264648 87.60205078 C216.44600109 92.52429835 207.73340461 95.79037107 196.38671875 91.95703125 C191.58825904 90.04315492 187.04039864 87.68739527 182.44921875 85.33203125 C172.1140281 80.05369746 163.1848812 79.08463463 151.57421875 78.45703125 C151.57421875 79.44703125 151.57421875 80.43703125 151.57421875 81.45703125 C152.54359375 81.56015625 153.51296875 81.66328125 154.51171875 81.76953125 C159.08132129 82.43536156 163.24788516 83.87663542 167.57421875 85.45703125 C168.55519531 85.80765625 169.53617187 86.15828125 170.546875 86.51953125 C177.75451884 89.18189301 184.50363969 92.32491046 191.28515625 95.90625 C200.80102174 100.39294668 209.35108693 100.80948871 219.26171875 97.45703125 C225.49463841 95.0645278 231.43337494 92.16994761 237.33276367 89.04882812 C242.27570834 86.45703125 242.27570834 86.45703125 245.57421875 86.45703125 C245.57421875 85.79703125 245.57421875 85.13703125 245.57421875 84.45703125 C253.71586221 81.06467981 263.97159161 80.43804733 272.57421875 82.45703125 C275.63671875 83.89453125 275.63671875 83.89453125 277.57421875 85.45703125 C277.57421875 86.11703125 277.57421875 86.77703125 277.57421875 87.45703125 C276.40246094 87.410625 275.23070312 87.36421875 274.0234375 87.31640625 C259.11247564 86.89846071 249.99884389 90.11375099 237.57421875 98.45703125 C225.54106416 106.34461734 215.01903522 109.09200503 200.5390625 107.0234375 C193.89990326 105.58480407 187.95890189 102.99173761 181.91235352 99.97045898 C171.93001954 95.00848011 162.28552085 93.64044617 151.6015625 97.20703125 C149.56799814 97.94716945 147.53810391 98.69745785 145.51171875 99.45703125 C136.60303543 102.58732518 129.13371681 104.07553763 119.72167969 103.58422852 C113.57651199 103.28642424 109.81782628 104.49009396 104.57421875 107.45703125 C92.09913291 110.71140147 80.87724119 107.83857331 69.81518555 102.06958008 C60.85763909 97.44558547 48.72766736 93.11594204 38.6015625 96.0234375 C36.57364732 96.79348084 34.57703006 97.62410405 32.57421875 98.45703125 C26.97700223 100.46376617 21.36934341 102.12700264 15.57421875 103.45703125 C14.64609375 103.70453125 13.71796875 103.95203125 12.76171875 104.20703125 C9.52539048 104.46086092 7.39656758 104.00534993 4.26171875 103.26953125 C-0.90897676 102.20021735 -3.78798501 102.86981775 -8.35546875 105.4140625 C-16.55431485 109.54442459 -28.5433406 108.32630521 -37.05078125 105.83203125 C-42.72367128 103.87826839 -48.08434843 101.35353711 -53.5 98.78515625 C-64.80450836 93.65360372 -75.37849077 94.86915854 -86.80078125 98.89453125 C-88.70369686 99.54121522 -90.6073203 100.18582093 -92.51171875 100.828125 C-93.33720215 101.1161499 -94.16268555 101.4041748 -95.01318359 101.70092773 C-110.56645057 106.57529201 -122.85274456 99.5110474 -136.42578125 92.45703125 C-136.09578125 90.80703125 -135.76578125 89.15703125 -135.42578125 87.45703125 C-132.623777 88.11757679 -129.94268312 88.9397073 -127.23046875 89.90234375 C-112.61559465 94.94472031 -104.57385679 94.6689593 -90.35546875 88.9296875 C-81.39677214 85.43557241 -70.69906799 82.91163645 -61.34130859 86.18652344 C-57.15604516 88.02557685 -53.1875395 90.24005185 -49.21044922 92.48681641 C-42.79454172 95.97475299 -35.99959546 98.60173519 -28.66015625 98.5546875 C-27.32597656 98.54985352 -27.32597656 98.54985352 -25.96484375 98.54492188 C-25.04445312 98.53654297 -24.1240625 98.52816406 -23.17578125 98.51953125 C-22.23992187 98.51501953 -21.3040625 98.51050781 -20.33984375 98.50585938 C-18.03509084 98.49410043 -15.73046898 98.47766551 -13.42578125 98.45703125 C-13.42578125 97.46703125 -13.42578125 96.47703125 -13.42578125 95.45703125 C-14.02390625 95.31265625 -14.62203125 95.16828125 -15.23828125 95.01953125 C-16.98728529 94.56978735 -18.71255148 94.02810784 -20.42578125 93.45703125 C-21.00328125 93.62203125 -21.58078125 93.78703125 -22.17578125 93.95703125 C-30.97259007 95.91187765 -40.80343862 90.35850491 -48.34912109 86.41625977 C-55.31755781 82.7780247 -61.45872371 80.0139988 -69.42578125 79.45703125 C-70.31523438 79.37710938 -71.2046875 79.2971875 -72.12109375 79.21484375 C-82.7624492 78.69945047 -92.01744482 83.11687411 -101.5390625 87.40625 C-108.41077582 89.90759084 -112.96250065 89.34209844 -119.61328125 87.01953125 C-129.72887062 83.7850037 -138.60032638 82.71975837 -148.42578125 87.45703125 C-149.78441526 88.42237647 -151.12921262 89.40980274 -152.42578125 90.45703125 C-153.08578125 90.45703125 -153.74578125 90.45703125 -154.42578125 90.45703125 C-152.65658889 83.96999259 -147.38762368 79.34544892 -141.73828125 76.01953125 C-134.9971686 72.96842804 -127.35479939 74.17057542 -120.23828125 75.14453125 C-113.0371785 75.94080703 -106.78199757 73.41010128 -101.11328125 69.02734375 C-95.82901395 64.11003946 -92.0576971 58.13224441 -88.68359375 51.80859375 C-87.25484305 49.13745113 -85.76417683 46.51140531 -84.23828125 43.89453125 C-83.50544922 42.62416016 -83.50544922 42.62416016 -82.7578125 41.328125 C-82.31824219 40.71066406 -81.87867187 40.09320313 -81.42578125 39.45703125 C-80.76578125 39.45703125 -80.10578125 39.45703125 -79.42578125 39.45703125 C-79.14734375 38.25046875 -79.14734375 38.25046875 -78.86328125 37.01953125 C-77.21525261 32.93528637 -74.99947675 30.10881322 -72.23828125 26.71484375 C-70.59073301 24.66250996 -69.09253415 22.56938521 -67.61328125 20.39453125 C-66.89140625 19.42515625 -66.16953125 18.45578125 -65.42578125 17.45703125 C-64.76578125 17.45703125 -64.10578125 17.45703125 -63.42578125 17.45703125 C-63.04679687 16.58304687 -63.04679687 16.58304687 -62.66015625 15.69140625 C-57.35601045 6.09023093 -43.88852123 -0.52871853 -34.05078125 -4.54296875 C-22.70213241 -7.78241515 -9.91606345 -6.30731894 0 0 Z M31.57421875 81.45703125 C32.1775 81.57820313 32.78078125 81.699375 33.40234375 81.82421875 C34.2015625 81.99179687 35.00078125 82.159375 35.82421875 82.33203125 C36.613125 82.49445313 37.40203125 82.656875 38.21484375 82.82421875 C40.57421875 83.45703125 40.57421875 83.45703125 42.57421875 84.48828125 C44.88777768 85.60891136 46.77337146 85.80476524 49.32421875 86.08203125 C54.63307883 86.96210966 58.85363252 88.87323026 63.57421875 91.33203125 C64.26402832 91.6892627 64.95383789 92.04649414 65.66455078 92.41455078 C66.68331299 92.94218018 66.68331299 92.94218018 67.72265625 93.48046875 C77.58631632 98.58335884 85.41055818 100.04373458 96.57421875 99.45703125 C96.90421875 97.47703125 97.23421875 95.49703125 97.57421875 93.45703125 C96.32318359 93.40095703 96.32318359 93.40095703 95.046875 93.34375 C84.44583744 92.7244454 77.0248791 90.24094582 67.69921875 85.45703125 C57.89412565 80.45482563 41.14697058 72.73775368 31.57421875 81.45703125 Z M-10.42578125 89.45703125 C-10.42578125 90.11703125 -10.42578125 90.77703125 -10.42578125 91.45703125 C-6.86106734 92.64526922 -4.16994765 92.71977977 -0.42578125 92.45703125 C1.97505313 91.09818009 1.97505313 91.09818009 3.57421875 89.45703125 C-2.29067057 86.32909028 -4.82094584 85.51849826 -10.42578125 89.45703125 Z M106.57421875 89.45703125 C106.57421875 90.11703125 106.57421875 90.77703125 106.57421875 91.45703125 C110.03921875 90.96203125 110.03921875 90.96203125 113.57421875 90.45703125 C113.57421875 89.46703125 113.57421875 88.47703125 113.57421875 87.45703125 C110.46870209 87.45703125 109.22160791 87.99640275 106.57421875 89.45703125 Z M14.57421875 91.45703125 C14.24421875 92.11703125 13.91421875 92.77703125 13.57421875 93.45703125 C18.54728391 92.95972473 22.21221688 91.90400791 26.57421875 89.45703125 C26.57421875 89.12703125 26.57421875 88.79703125 26.57421875 88.45703125 C21.71183052 88.1097178 18.74703366 88.93393386 14.57421875 91.45703125 Z " fill="#01F19C" transform="translate(188.42578125,319.54296875)"/>
<path d="M0 0 C21.63430963 13.32548057 34.86748261 32.50290097 41 57 C42.15218092 62.30906892 42.11539298 67.47177911 42.0625 72.875 C42.05798828 73.75414062 42.05347656 74.63328125 42.04882812 75.5390625 C42.03712337 77.69273803 42.01919069 79.84637817 42 82 C42.65226563 81.62746094 43.30453125 81.25492187 43.9765625 80.87109375 C51.1280654 77 51.1280654 77 55.4375 77 C57.99970734 77.99988579 59.31694183 78.84942567 61 81 C60.54625 81.70125 60.0925 82.4025 59.625 83.125 C56.01531625 89.51136355 55.93416578 93.96478657 56.875 101 C59.68332826 126.09858589 61.5015778 153.48321152 45.625 174.6875 C44.43183521 176.13761499 43.22409089 177.57589425 42 179 C41.25169922 179.90878906 41.25169922 179.90878906 40.48828125 180.8359375 C30.30643173 192.17190095 14.93431995 197.2244669 0.1875 198.75 C-1.8737219 198.86052128 -3.93666321 198.94090682 -6 199 C-6.98758301 199.03867187 -6.98758301 199.03867187 -7.99511719 199.078125 C-29.52882067 199.85939315 -51.16042272 196.34883551 -68.2109375 182.16015625 C-79.89713581 171.21274059 -85.29912304 156.84453516 -87.93359375 141.328125 C-87.95550781 140.55984375 -87.97742188 139.7915625 -88 139 C-87.01 138.01 -87.01 138.01 -86 137 C-84.8745809 138.60387267 -83.74968028 140.20810916 -82.625 141.8125 C-81.99851563 142.70582031 -81.37203125 143.59914062 -80.7265625 144.51953125 C-79.46449761 146.33267878 -78.22541192 148.16188211 -77 150 C-77.165 148.88625 -77.33 147.7725 -77.5 146.625 C-79.34208283 131.10274319 -76.89604532 117.05100768 -67.125 104.61328125 C-63.86183741 100.71788091 -63.86183741 100.71788091 -62 99 C-61.34 99 -60.68 99 -60 99 C-60 98.34 -60 97.68 -60 97 C-58.38260845 95.70668139 -56.70326111 94.49043466 -55 93.3125 C-42.04165636 84.08030396 -31.45180237 73.67622698 -28.625 57.375 C-27.62129049 49.16195389 -27.86401854 43.84797529 -33 37 C-33.68751933 35.67729845 -34.35875802 34.3457455 -35 33 C-25.91181508 33.28851381 -20.57093011 36.42906989 -14.1875 42.8125 C-8.83079761 50.61798063 -6.84443381 57.66602844 -7 67 C-6.34 67 -5.68 67 -5 67 C-4.896875 66.071875 -4.79375 65.14375 -4.6875 64.1875 C-4.23834251 60.98564878 -3.46236056 57.97906447 -2.5625 54.875 C0.34924668 44.25568857 1.18989165 34.29068977 1.25 23.3125 C1.26389771 21.72671143 1.26389771 21.72671143 1.27807617 20.10888672 C1.25424598 14.13638715 0.73777148 8.66343036 -0.66894531 2.85229492 C-0.77819336 2.2410376 -0.88744141 1.62978027 -1 1 C-0.67 0.67 -0.34 0.34 0 0 Z " fill="#04D7F4" transform="translate(251,71)"/>
<path d="M0 0 C2.59009441 2.29093597 3.78036731 4.38503914 5.05078125 7.5859375 C5.59968018 8.96616089 5.59968018 8.96616089 6.15966797 10.37426758 C6.54010254 11.36450928 6.92053711 12.35475098 7.3125 13.375 C7.90635498 14.91353638 7.90635498 14.91353638 8.51220703 16.4831543 C18.04626711 41.66925333 27.09893384 71.47828805 16.8984375 97.84765625 C12.20462445 107.88635964 5.33303777 115.03658448 -5.03515625 119.2265625 C-20.37060737 124.50940688 -41.04262861 126.29595755 -56.44140625 120.3203125 C-65.65681182 115.56488184 -70.21020635 109.77662642 -74.1015625 100.32421875 C-76.89240226 89.99811163 -76.3961241 77.1672482 -71.609375 67.59375 C-67.5657081 61.07677227 -62.53575017 55.57609741 -57.375 49.9375 C-48.821345 40.49898414 -44.15746069 31.73206757 -43 19 C-38.09474356 20.48644135 -34.25048294 23.06398867 -31 27 C-29.31780394 30.57589629 -28.08735675 34.20438202 -27 38 C-13.22975764 27.77486259 -3.54142 17.06320544 0 0 Z " fill="#00FEA4" transform="translate(270,144)"/>
<path d="M0 0 C9.17114629 4.9647235 14.75445502 11.58383555 19.8125 20.75 C22.12427319 28.71277432 22.19684524 38.87891025 18.6875 46.4375 C15.68824029 51.56691575 12.46278877 53.86657041 6.8125 55.75 C0.68794882 56.25201239 -2.31267646 55.84928344 -7.1875 51.75 C-10.44629884 48.74847475 -11.47178087 46.58595448 -11.6875 42.25 C-11.51541107 39.2131365 -11.10673632 37.57378834 -9.8125 34.75 C-5.89121849 31.76235695 -2.04409878 31.4587615 2.8125 31.75 C5.89150106 33.09706296 7.45906195 34.39656195 9.8125 36.75 C10.42301332 29.91225077 9.12314199 26.09377107 4.8125 20.75 C0.17124317 16.10874317 -4.64134444 14.99640215 -11.0625 14.375 C-18.22003369 14.59650975 -24.49343936 18.30260248 -29.68359375 23.03515625 C-35.74724015 29.94928812 -36.63025674 38.00571322 -36.47265625 46.875 C-36.085603 52.13468256 -34.67629741 56.1452912 -32.1875 60.75 C-31.630625 61.8225 -31.07375 62.895 -30.5 64 C-24.46491113 71.17686244 -18.04002551 73.58981678 -8.8125 74.57421875 C-1.3711553 74.93505982 5.74406453 74.27767797 13 72.625 C20.17596305 71.06145683 27.00693276 72.06359188 33.8125 74.75 C30.95551146 76.32783685 28.5289323 77.07467443 25.3125 77.5625 C15.26438345 79.4785164 6.10134353 84.4748048 -3.04907227 88.89501953 C-13.31571766 93.8172671 -22.02831414 97.08333982 -33.375 93.25 C-38.17360062 91.33606747 -42.72079719 88.97955593 -47.3125 86.625 C-52.88937559 83.78853571 -57.86932306 81.27140295 -64.1875 80.75 C-65.27289063 80.61207031 -66.35828125 80.47414063 -67.4765625 80.33203125 C-77.80916197 79.60601357 -85.69698559 82.37464047 -95.11767578 86.5480957 C-102.23021544 89.65852322 -107.03121648 91.05174428 -114.6796875 88.65625 C-115.79601562 88.1921875 -116.91234375 87.728125 -118.0625 87.25 C-127.56587288 83.68370229 -135.78617056 83.55821458 -145.1875 87.75 C-146.9390069 89.25987282 -146.9390069 89.25987282 -148.1875 90.75 C-148.8475 90.42 -149.5075 90.09 -150.1875 89.75 C-148.82451122 88.13561551 -147.4465061 86.53390308 -146.0625 84.9375 C-145.29679687 84.04417969 -144.53109375 83.15085937 -143.7421875 82.23046875 C-139.07803659 77.70182069 -135.58431726 76.57951314 -129.16015625 76.5625 C-125.68933108 76.63426893 -122.22154175 76.75095338 -118.75195312 76.8671875 C-108.74849374 77.0826228 -108.74849374 77.0826228 -100.375 72.0625 C-99.983125 71.629375 -99.59125 71.19625 -99.1875 70.75 C-98.5275 70.75 -97.8675 70.75 -97.1875 70.75 C-96.92275879 70.1727417 -96.65801758 69.5954834 -96.38525391 69.00073242 C-95.13551421 66.65231207 -93.70960192 64.79297571 -92.0234375 62.73828125 C-87.81495165 57.41399147 -84.33527139 51.7290202 -80.8125 45.9375 C-75.63267309 37.54778281 -70.4722294 29.36675297 -64.1875 21.75 C-63.48753906 20.88761719 -62.78757812 20.02523438 -62.06640625 19.13671875 C-53.76466681 9.38476458 -44.09003993 2.43204177 -32.1875 -2.25 C-31.37539063 -2.61738281 -30.56328125 -2.98476563 -29.7265625 -3.36328125 C-20.43519001 -6.60811441 -8.66538573 -4.06475861 0 0 Z " fill="#D31FF5" transform="translate(418.1875,318.25)"/>
<path d="M0 0 C9.20180976 6.75830397 16.26636918 15.04599726 18.57421875 26.45703125 C19.44426837 34.93380043 18.45450523 41.37187704 13.57421875 48.45703125 C10.10774725 52.01472569 6.27820091 53.8890372 1.57421875 55.45703125 C-3.92839148 55.45703125 -8.19471156 52.77277019 -12.42578125 49.45703125 C-14.70195081 46.6829496 -15.33710101 45.05245574 -15.86328125 41.51953125 C-15.29814294 37.56356309 -13.98741984 35.50330416 -11.42578125 32.45703125 C-7.52724109 30.13898035 -3.89444504 29.97824584 0.57421875 30.45703125 C3.51171875 32.45703125 3.51171875 32.45703125 5.57421875 34.45703125 C5.90421875 34.12703125 6.23421875 33.79703125 6.57421875 33.45703125 C6.27775501 27.62657771 5.50952436 23.99776849 1.57421875 19.45703125 C-4.53046957 14.81897236 -9.67811457 12.83221942 -17.42578125 13.45703125 C-24.50215778 15.52050713 -30.95976594 18.3157338 -34.86328125 24.87109375 C-39.74846655 34.72473456 -40.53194232 43.8868115 -37.42578125 54.45703125 C-34.88445358 60.7460756 -31.29771065 65.91794202 -25.42578125 69.45703125 C-16.98355463 72.97462567 -8.89124453 73.8001909 0.09765625 72.71484375 C3.6078721 72.34942696 7.04785152 72.39172815 10.57421875 72.45703125 C8.35141405 75.01325665 6.88848728 75.85919169 3.57421875 76.45703125 C1.7766421 76.50356934 -0.02273565 76.49574898 -1.8203125 76.44921875 C-3.37782227 76.42408203 -3.37782227 76.42408203 -4.96679688 76.3984375 C-7.13624598 76.35440092 -9.30554904 76.30240281 -11.47460938 76.2421875 C-20.17933515 76.12375586 -25.84307886 77.39401589 -32.42578125 83.45703125 C-33.22048196 84.55901624 -34.01205331 85.66326348 -34.80078125 86.76953125 C-35.66703125 87.65640625 -36.53328125 88.54328125 -37.42578125 89.45703125 C-42.78843404 89.26320043 -46.53400171 87.59176162 -51.17578125 85.01953125 C-57.19338153 81.84862335 -62.63407039 80.00961128 -69.42578125 79.45703125 C-70.76382813 79.33521484 -70.76382813 79.33521484 -72.12890625 79.2109375 C-82.7693986 78.70931429 -92.01700025 83.11667384 -101.5390625 87.40625 C-108.41077582 89.90759084 -112.96250065 89.34209844 -119.61328125 87.01953125 C-129.72887062 83.7850037 -138.60032638 82.71975837 -148.42578125 87.45703125 C-149.78441526 88.42237647 -151.12921262 89.40980274 -152.42578125 90.45703125 C-153.08578125 90.45703125 -153.74578125 90.45703125 -154.42578125 90.45703125 C-152.65658889 83.96999259 -147.38762368 79.34544892 -141.73828125 76.01953125 C-134.9971686 72.96842804 -127.35479939 74.17057542 -120.23828125 75.14453125 C-113.0371785 75.94080703 -106.78199757 73.41010128 -101.11328125 69.02734375 C-95.82901395 64.11003946 -92.0576971 58.13224441 -88.68359375 51.80859375 C-87.25484305 49.13745113 -85.76417683 46.51140531 -84.23828125 43.89453125 C-83.50544922 42.62416016 -83.50544922 42.62416016 -82.7578125 41.328125 C-82.31824219 40.71066406 -81.87867187 40.09320313 -81.42578125 39.45703125 C-80.76578125 39.45703125 -80.10578125 39.45703125 -79.42578125 39.45703125 C-79.14734375 38.25046875 -79.14734375 38.25046875 -78.86328125 37.01953125 C-77.21525261 32.93528637 -74.99947675 30.10881322 -72.23828125 26.71484375 C-70.59073301 24.66250996 -69.09253415 22.56938521 -67.61328125 20.39453125 C-66.89140625 19.42515625 -66.16953125 18.45578125 -65.42578125 17.45703125 C-64.76578125 17.45703125 -64.10578125 17.45703125 -63.42578125 17.45703125 C-63.04679687 16.58304687 -63.04679687 16.58304687 -62.66015625 15.69140625 C-57.35601045 6.09023093 -43.88852123 -0.52871853 -34.05078125 -4.54296875 C-22.70213241 -7.78241515 -9.91606345 -6.30731894 0 0 Z " fill="#04D4F1" transform="translate(188.42578125,319.54296875)"/>
<path d="M0 0 C0.33 0.99 0.66 1.98 1 3 C-0.17175781 2.95359375 -1.34351563 2.9071875 -2.55078125 2.859375 C-17.46174311 2.44142946 -26.57537486 5.65671974 -39 14 C-51.03315459 21.88758609 -61.55518353 24.63497378 -76.03515625 22.56640625 C-82.67431549 21.12777282 -88.61531686 18.53470636 -94.66186523 15.51342773 C-104.64419921 10.55144886 -114.2886979 9.18341492 -124.97265625 12.75 C-127.00622061 13.4901382 -129.03611484 14.2404266 -131.0625 15 C-139.97118332 18.13029393 -147.44050194 19.61850638 -156.85253906 19.12719727 C-162.99770676 18.82939299 -166.75639247 20.03306271 -172 23 C-184.47508584 26.25437022 -195.69697756 23.38154206 -206.7590332 17.61254883 C-215.71657966 12.98855422 -227.84655139 8.65891079 -237.97265625 11.56640625 C-240.00057143 12.33644959 -241.99718869 13.1670728 -244 14 C-249.59721652 16.00673492 -255.20487534 17.66997139 -261 19 C-262.3921875 19.37125 -262.3921875 19.37125 -263.8125 19.75 C-267.04882827 20.00382967 -269.17765117 19.54831868 -272.3125 18.8125 C-277.48319551 17.7431861 -280.36220376 18.4127865 -284.9296875 20.95703125 C-293.1285336 25.08739334 -305.11755935 23.86927396 -313.625 21.375 C-319.29789003 19.42123714 -324.65856718 16.89650586 -330.07421875 14.328125 C-341.37872711 9.19657247 -351.95270952 10.41212729 -363.375 14.4375 C-365.27791561 15.08418397 -367.18153905 15.72878968 -369.0859375 16.37109375 C-369.9114209 16.65911865 -370.7369043 16.94714355 -371.58740234 17.24389648 C-387.14066932 22.11826076 -399.42696331 15.05401615 -413 8 C-412.67 6.35 -412.34 4.7 -412 3 C-409.19799575 3.66054554 -406.51690187 4.48267605 -403.8046875 5.4453125 C-389.1898134 10.48768906 -381.14807554 10.21192805 -366.9296875 4.47265625 C-357.97099089 0.97854116 -347.27328674 -1.5453948 -337.91552734 1.72949219 C-333.73026391 3.5685456 -329.76175825 5.7830206 -325.78466797 8.02978516 C-319.36876047 11.51772174 -312.57381421 14.14470394 -305.234375 14.09765625 C-303.90019531 14.09282227 -303.90019531 14.09282227 -302.5390625 14.08789062 C-301.15847656 14.07532227 -301.15847656 14.07532227 -299.75 14.0625 C-298.81414062 14.05798828 -297.87828125 14.05347656 -296.9140625 14.04882812 C-294.60930959 14.03706918 -292.30468773 14.02063426 -290 14 C-290 13.01 -290 12.02 -290 11 C-290.61875 10.855625 -291.2375 10.71125 -291.875 10.5625 C-294 10 -294 10 -296 9 C-296 8.01 -296 7.02 -296 6 C-292.7 5.34 -289.4 4.68 -286 4 C-286.33 4.99 -286.66 5.98 -287 7 C-283.04 7 -279.08 7 -275 7 C-275.66 7.99 -276.32 8.98 -277 10 C-273.78020634 10.86654873 -273.78020634 10.86654873 -270 11 C-267.97543152 9.70427617 -265.97321053 8.3726682 -264 7 C-262.32706064 7.30027117 -260.66014616 7.63557767 -259 8 C-256.51545681 7.22033163 -254.34956977 6.15174989 -252 5 C-253.98 4.01 -253.98 4.01 -256 3 C-249.56117383 0.93957563 -243.71999877 0.86128483 -236.9765625 1.02734375 C-234.07107619 1.21844582 -234.07107619 1.21844582 -232 0 C-224.97986971 0.20172788 -219.11610664 2.7013303 -213 5.875 C-212.31035156 6.23271484 -211.62070313 6.59042969 -210.91015625 6.95898438 C-210.23082031 7.31154297 -209.55148438 7.66410156 -208.8515625 8.02734375 C-199.25336304 12.99524425 -190.82093073 14.68406042 -180 15 C-179.67 12.03 -179.34 9.06 -179 6 C-172.36428819 5.66230474 -167.75393727 7.42207583 -161.6953125 9.90625 C-153.60360167 12.30125955 -147.52407912 10.92408186 -139.9375 7.625 C-127.85191655 2.52104544 -113.6861686 -1.41190262 -100.8125 3.5625 C-99.18995735 4.33765308 -97.5872529 5.1549348 -96 6 C-94.22402812 6.89798578 -92.44789733 7.79567545 -90.66870117 8.68725586 C-88.90220617 9.57968086 -87.1479751 10.49625989 -85.39453125 11.4140625 C-75.81211772 15.89100139 -67.29080457 16.37534904 -57.3125 13 C-51.07958034 10.60749655 -45.14084381 7.71291636 -39.24145508 4.59179688 C-34.29851041 2 -34.29851041 2 -31 2 C-31 1.34 -31 0.68 -31 0 C-21.27372055 -3.55839492 -9.29807904 -5.45756813 0 0 Z " fill="#05D48E" transform="translate(465,404)"/>
<path d="M0 0 C5.97833147 1.22006765 10.04727097 3.26034322 14 8 C20.03398762 18.14252302 21.93291612 26.20897679 21 38 C19.47944357 43.80125335 16.75550959 48.26352818 12 52 C4.72597991 54.97477989 -4.02204147 55.37656551 -11.61328125 53.27734375 C-15.76878712 51.34436832 -18.49941069 48.90091932 -21 45 C-23.85062989 36.44811034 -21.63262735 28.85989777 -18.38671875 20.75 C-17.13761816 18.27291038 -16.09638265 16.77055192 -14 15 C-13.54625 15.969375 -13.0925 16.93875 -12.625 17.9375 C-11.34213779 21.07079582 -11.34213779 21.07079582 -9 22 C-4.82683426 22.42842753 -4.82683426 22.42842753 -1.1875 20.6875 C2.85861337 14.93775995 1.10987971 6.5205433 0 0 Z " fill="#D822FD" transform="translate(240,211)"/>
<path d="M0 0 C0.33 0.99 0.66 1.98 1 3 C-0.17175781 2.95359375 -1.34351563 2.9071875 -2.55078125 2.859375 C-17.46174311 2.44142946 -26.57537486 5.65671974 -39 14 C-51.03315459 21.88758609 -61.55518353 24.63497378 -76.03515625 22.56640625 C-82.67431549 21.12777282 -88.61531686 18.53470636 -94.66186523 15.51342773 C-104.80409033 10.47197081 -114.39233234 9.30091136 -125.25390625 12.75 C-127.36302057 13.48224056 -129.46598012 14.23244294 -131.5625 15 C-142.524577 18.99849019 -151.61956316 21.07193184 -162.625 16.3125 C-163.25672119 16.04356934 -163.88844238 15.77463867 -164.53930664 15.49755859 C-169.54215839 13.32451881 -174.34995556 10.8479947 -179 8 C-179 7.34 -179 6.68 -179 6 C-172.36428819 5.66230474 -167.75393727 7.42207583 -161.6953125 9.90625 C-153.60360167 12.30125955 -147.52407912 10.92408186 -139.9375 7.625 C-127.85191655 2.52104544 -113.6861686 -1.41190262 -100.8125 3.5625 C-99.18995735 4.33765308 -97.5872529 5.1549348 -96 6 C-94.22402812 6.89798578 -92.44789733 7.79567545 -90.66870117 8.68725586 C-88.90220617 9.57968086 -87.1479751 10.49625989 -85.39453125 11.4140625 C-75.81211772 15.89100139 -67.29080457 16.37534904 -57.3125 13 C-51.07958034 10.60749655 -45.14084381 7.71291636 -39.24145508 4.59179688 C-34.29851041 2 -34.29851041 2 -31 2 C-31 1.34 -31 0.68 -31 0 C-21.27372055 -3.55839492 -9.29807904 -5.45756813 0 0 Z " fill="#C31FE5" transform="translate(465,404)"/>
<path d="M0 0 C1.27067649 0.71932616 2.53870928 1.44334774 3.80371094 2.17260742 C15.57922634 8.69195797 26.86578758 8.95572626 40.05615234 7.45532227 C44.92408897 6.97373495 47.54242908 7.35551444 51.55615234 10.14282227 C51.55615234 10.80282227 51.55615234 11.46282227 51.55615234 12.14282227 C50.16337217 12.79521385 48.76676023 13.43942779 47.36865234 14.08032227 C46.59134766 14.4399707 45.81404297 14.79961914 45.01318359 15.17016602 C33.62712055 19.67752643 20.57141 17.55430519 9.55615234 13.14282227 C6.17625437 11.62862797 2.82818383 10.05791145 -0.51806641 8.47094727 C-11.82257476 3.33939474 -22.39655718 4.55494955 -33.81884766 8.58032227 C-35.72176327 9.22700624 -37.6253867 9.87161195 -39.52978516 10.51391602 C-40.35526855 10.80194092 -41.18075195 11.08996582 -42.03125 11.38671875 C-57.58451697 16.26108303 -69.87081097 9.19683841 -83.44384766 2.14282227 C-83.11384766 0.49282227 -82.78384766 -1.15717773 -82.44384766 -2.85717773 C-79.64184341 -2.1966322 -76.96074953 -1.37450168 -74.24853516 -0.41186523 C-59.58619815 4.64688682 -51.46837462 4.32658543 -37.17822266 -1.38452148 C-23.87438453 -6.6455083 -12.58926571 -6.94722803 0 0 Z " fill="#06C1DC" transform="translate(135.44384765625,409.857177734375)"/>
<path d="M0 0 C0.66 0 1.32 0 2 0 C2 0.99 2 1.98 2 3 C2.969375 3.103125 3.93875 3.20625 4.9375 3.3125 C9.48593839 3.94629879 13.69417104 5.44755827 18 7 C18 7.33 18 7.66 18 8 C16.83082031 8.06058594 15.66164063 8.12117188 14.45703125 8.18359375 C12.90884386 8.26804034 11.36066732 8.35268625 9.8125 8.4375 C9.04357422 8.47681641 8.27464844 8.51613281 7.48242188 8.55664062 C0.1106598 8.61166754 0.1106598 8.61166754 -6 12 C-19.99387044 18.24466357 -28.39922981 19.53396366 -43 14 C-43 13.67 -43 13.34 -43 13 C-40.69 12.34 -38.38 11.68 -36 11 C-36.99 10.67 -37.98 10.34 -39 10 C-39.99 9.67 -40.98 9.34 -42 9 C-39.375 7.8125 -39.375 7.8125 -36 7 C-35.0925 7.495 -34.185 7.99 -33.25 8.5 C-28.41430606 10.73185874 -24.96457741 9.53068826 -20 8 C-16.59692612 6.73902211 -13.2325813 5.41984714 -9.8828125 4.0234375 C-7 3 -7 3 -3 3 C-2.67 2.34 -2.34 1.68 -2 1 C-1.34 1.33 -0.68 1.66 0 2 C0 1.34 0 0.68 0 0 Z " fill="#09EBA0" transform="translate(338,398)"/>
<path d="M0 0 C-0.639375 0.2475 -1.27875 0.495 -1.9375 0.75 C-4.49019039 1.96621634 -4.49019039 1.96621634 -5 6 C-7.97 5.67 -10.94 5.34 -14 5 C-14 5.99 -14 6.98 -14 8 C-17.67424345 8.92185319 -20.41587295 8.99863115 -24.125 8.25 C-25.39730469 8.01023437 -25.39730469 8.01023437 -26.6953125 7.765625 C-29.20265038 6.93267886 -30.31830698 6.00044529 -32 4 C-23.44220771 -4.27253255 -10.27844869 -5.36266888 0 0 Z " fill="#09E49B" transform="translate(300,405)"/>
<path d="M0 0 C0 0.66 0 1.32 0 2 C-9.41002278 5.44419134 -9.41002278 5.44419134 -14 5 C-14.66 6.32 -15.32 7.64 -16 9 C-21.98993047 9.3152595 -25.63560356 8.68219822 -31 6 C-29.72168567 2.02302209 -27.31875268 0.74891393 -23.8515625 -1.16796875 C-16.11087652 -4.64637827 -7.34817857 -3.91902857 0 0 Z " fill="#04D5ED" transform="translate(183,405)"/>
<path d="M0 0 C1.88671875 2.046875 1.88671875 2.046875 3 4 C2.01 3.98839844 1.02 3.97679687 0 3.96484375 C-6.73800533 3.9102781 -13.32999603 3.91101976 -20 5 C-20 5.66 -20 6.32 -20 7 C-21.01320312 7.38091797 -21.01320312 7.38091797 -22.046875 7.76953125 C-22.93890625 8.11371094 -23.8309375 8.45789063 -24.75 8.8125 C-25.63171875 9.14894531 -26.5134375 9.48539062 -27.421875 9.83203125 C-30.03376779 10.88656399 -30.03376779 10.88656399 -32.0625 12.65625 C-34 14 -34 14 -36.140625 14.07421875 C-38.09375 13.71614583 -40.046875 13.35807292 -42 13 C-39.90984469 8.84248325 -38.3766569 7.27923236 -33.984375 5.76171875 C-32.98688232 5.41592773 -31.98938965 5.07013672 -30.96166992 4.71386719 C-29.90181885 4.37516602 -28.84196777 4.03646484 -27.75 3.6875 C-26.67274658 3.33719727 -25.59549316 2.98689453 -24.4855957 2.62597656 C-16.53689258 0.17802579 -8.30048448 -2.04246542 0 0 Z " fill="#04D3ED" transform="translate(229,402)"/>
<path d="M0 0 C-2.93039595 1.9535973 -3.7626951 2.25328562 -7.0625 2.5 C-10.99988402 2.59161885 -10.99988402 2.59161885 -13 5 C-15.59420936 6.11139269 -18.17073455 7.14168926 -20.8125 8.125 C-21.52470703 8.40214844 -22.23691406 8.67929687 -22.97070312 8.96484375 C-26.77144577 10.39231971 -29.87157706 11.37309913 -34 11 C-25.2829402 1.40510983 -12.28397327 -0.3630731 0 0 Z " fill="#202838" transform="translate(345,405)"/>
<path d="M0 0 C6.22961977 -0.05059881 12.4591868 -0.08569062 18.68896484 -0.10986328 C20.8094277 -0.11993751 22.92987661 -0.13359733 25.05029297 -0.15087891 C28.09345943 -0.17506489 31.13644266 -0.18646869 34.1796875 -0.1953125 C35.13181122 -0.20563507 36.08393494 -0.21595764 37.06491089 -0.22659302 C37.94567291 -0.22674408 38.82643494 -0.22689514 39.73388672 -0.22705078 C40.51110077 -0.231492 41.28831482 -0.23593323 42.08908081 -0.24050903 C44 0 44 0 46 2 C40.12897439 4.01866771 34.81000211 4.34704705 28.625 4.3125 C27.66706543 4.31121094 26.70913086 4.30992187 25.72216797 4.30859375 C16.92850805 4.19179269 8.56581198 2.90856288 0 1 C0 0.67 0 0.34 0 0 Z " fill="#06C0DA" transform="translate(210,266)"/>
<path d="M0 0 C2.64 1.32 5.28 2.64 8 4 C2.46758973 7.68827351 -2.65035562 8.32230021 -9.1875 8.25 C-10.25387695 8.26160156 -10.25387695 8.26160156 -11.34179688 8.2734375 C-15.10012031 8.25929517 -16.7989956 8.13400293 -20 6 C-14.06 6.33 -8.12 6.66 -2 7 C-1.67 5.02 -1.34 3.04 -1 1 C-0.67 0.67 -0.34 0.34 0 0 Z " fill="#1D2936" transform="translate(287,412)"/>
<path d="M0 0 C0.33 0 0.66 0 1 0 C1.03758423 0.92897095 1.03758423 0.92897095 1.07592773 1.87670898 C1.19322658 4.73044888 1.31533586 7.58396441 1.4375 10.4375 C1.47681641 11.41138672 1.51613281 12.38527344 1.55664062 13.38867188 C1.81368167 19.30061599 2.27719621 25.12645997 3 31 C2.34 31 1.68 31 1 31 C-0.6875 28.625 -0.6875 28.625 -2 26 C-1.67 25.34 -1.34 24.68 -1 24 C-0.67 24 -0.34 24 0 24 C-0.165 22.88625 -0.33 21.7725 -0.5 20.625 C-1.35851282 13.70783953 -1.44078764 6.8437413 0 0 Z " fill="#144B5B" transform="translate(174,197)"/>
<path d="M0 0 C0.66 0.66 1.32 1.32 2 2 C-2.96993194 4.43425238 -6.34605369 5.34615998 -12 5 C-12 4.34 -12 3.68 -12 3 C-16.62 3 -21.24 3 -26 3 C-26 2.67 -26 2.34 -26 2 C-25.39003174 1.97494385 -24.78006348 1.9498877 -24.15161133 1.92407227 C-21.37172102 1.8075942 -18.5921266 1.68510368 -15.8125 1.5625 C-14.85279297 1.52318359 -13.89308594 1.48386719 -12.90429688 1.44335938 C-11.97294922 1.40146484 -11.04160156 1.35957031 -10.08203125 1.31640625 C-9.22843018 1.27974854 -8.3748291 1.24309082 -7.49536133 1.20532227 C-4.94592191 1.0593373 -4.94592191 1.0593373 -2.30737305 0.35522461 C-1.54593994 0.23800049 -0.78450684 0.12077637 0 0 Z " fill="#0DAE7C" transform="translate(314,391)"/>
<path d="M0 0 C2.375 1.625 2.375 1.625 4 3 C-1.62870885 5.93161919 -4.77166905 6.2019586 -11 5 C-11 4.67 -11 4.34 -11 4 C-8.69 3.34 -6.38 2.68 -4 2 C-4.99 1.67 -5.98 1.34 -7 1 C-7.99 0.67 -8.98 0.34 -10 0 C-6.21732543 -2.6187747 -4.06977069 -1.78052468 0 0 Z " fill="#1E2635" transform="translate(306,407)"/>
<path d="M0 0 C1.07765625 0.00902344 2.1553125 0.01804687 3.265625 0.02734375 C4.08546875 0.03894531 4.9053125 0.05054688 5.75 0.0625 C2.81960405 2.0160973 1.9873049 2.31578562 -1.3125 2.5625 C-5.24988402 2.65411885 -5.24988402 2.65411885 -7.25 5.0625 C-9.23356483 5.77658334 -11.23315437 6.44867742 -13.25 7.0625 C-13.25 5.7425 -13.25 4.4225 -13.25 3.0625 C-8.72900181 0.04850121 -5.38967935 -0.05858347 0 0 Z " fill="#22424B" transform="translate(339.25,404.9375)"/>
<path d="M0 0 C0.66 0.33 1.32 0.66 2 1 C-0.31 3.31 -2.62 5.62 -5 8 C-4.67 8.66 -4.34 9.32 -4 10 C-9.75 14 -9.75 14 -12 14 C-10.28842825 7.7242369 -5.24692437 3.49794958 0 0 Z " fill="#0F768A" transform="translate(46,396)"/>
<path d="M0 0 C-2.19246391 2.5213335 -3.68847248 3.51052239 -7 4 C-8.74886981 4.06624507 -10.50002748 4.08552595 -12.25 4.0625 C-13.14203125 4.05347656 -14.0340625 4.04445313 -14.953125 4.03515625 C-15.62859375 4.02355469 -16.3040625 4.01195312 -17 4 C-17.33 3.01 -17.66 2.02 -18 1 C-11.97403427 -0.0712828 -6.11090483 -0.09945415 0 0 Z " fill="#08B4C9" transform="translate(199,392)"/>
<path d="M0 0 C7.41834582 -0.09377123 14.66236293 -0.17402193 22 1 C22 1.99 22 2.98 22 4 C14.46783285 3.55761615 7.3197277 2.86094772 0 1 C0 0.67 0 0.34 0 0 Z " fill="#0F7B8F" transform="translate(210,266)"/>
<path d="M0 0 C0.66 0 1.32 0 2 0 C2 0.99 2 1.98 2 3 C2.969375 3.103125 3.93875 3.20625 4.9375 3.3125 C9.48593839 3.94629879 13.69417104 5.44755827 18 7 C18 7.33 18 7.66 18 8 C12.12151831 8.3040594 9.28674655 7.69731967 4 5 C1.01072148 4.46813496 -1.97152258 4.19516854 -5 4 C-4.34 3.67 -3.68 3.34 -3 3 C-2.67 2.34 -2.34 1.68 -2 1 C-1.34 1.33 -0.68 1.66 0 2 C0 1.34 0 0.68 0 0 Z " fill="#222E3F" transform="translate(338,398)"/>
<path d="M0 0 C0.66 0.33 1.32 0.66 2 1 C-2.95 5.95 -7.9 10.9 -13 16 C-13.66 15.67 -14.32 15.34 -15 15 C-10.28109462 9.59947495 -5.69641143 4.38185495 0 0 Z " fill="#931FB0" transform="translate(369,325)"/>
<path d="M0 0 C0.66 0.33 1.32 0.66 2 1 C-6.27906977 10.58139535 -6.27906977 10.58139535 -9 13 C-9.66 13 -10.32 13 -11 13 C-10.67 12.01 -10.34 11.02 -10 10 C-9.34 10 -8.68 10 -8 10 C-7.79375 9.46375 -7.5875 8.9275 -7.375 8.375 C-5.42003056 4.9982346 -2.81776305 2.69525161 0 0 Z " fill="#0D869B" transform="translate(133,327)"/>
<path d="M0 0 C-1.47721422 3.45201639 -3.43794001 5.64961936 -6.125 8.25 C-6.84945312 8.95640625 -7.57390625 9.6628125 -8.3203125 10.390625 C-8.87460938 10.92171875 -9.42890625 11.4528125 -10 12 C-10.33 11.01 -10.66 10.02 -11 9 C-9.54782324 7.49403892 -8.08807139 5.99537896 -6.625 4.5 C-5.40683594 3.24703125 -5.40683594 3.24703125 -4.1640625 1.96875 C-2 0 -2 0 0 0 Z " fill="#0C966B" transform="translate(250,328)"/>
<path d="M0 0 C0.66 0.33 1.32 0.66 2 1 C-1.96 4.96 -5.92 8.92 -10 13 C-10.66 12.67 -11.32 12.34 -12 12 C-11.04882866 10.8274869 -10.08882991 9.66212985 -9.125 8.5 C-8.32449219 7.52546875 -8.32449219 7.52546875 -7.5078125 6.53125 C-7.01023438 6.0259375 -6.51265625 5.520625 -6 5 C-5.34 5 -4.68 5 -4 5 C-4 4.34 -4 3.68 -4 3 C-2 1.375 -2 1.375 0 0 Z " fill="#0B97AE" transform="translate(195,165)"/>
<path d="M0 0 C2.625 0.9375 2.625 0.9375 5 2 C1.46588679 4.12046792 -1.94393835 4.53199289 -6 5 C-2.25 1.125 -2.25 1.125 0 0 Z " fill="#164244" transform="translate(201,411)"/>
<path d="M0 0 C-0.99 0.495 -0.99 0.495 -2 1 C-0.68 1.66 0.64 2.32 2 3 C0.54207116 3.05399736 -0.91642712 3.09279177 -2.375 3.125 C-3.18710938 3.14820313 -3.99921875 3.17140625 -4.8359375 3.1953125 C-7 3 -7 3 -9 1 C-3.375 -1.125 -3.375 -1.125 0 0 Z " fill="#163F43" transform="translate(224,399)"/>
<path d="M0 0 C2.66666667 0.66666667 5.33333333 1.33333333 8 2 C8 2.66 8 3.32 8 4 C5.36 3.67 2.72 3.34 0 3 C-0.33 3.66 -0.66 4.32 -1 5 C-0.67 3.35 -0.34 1.7 0 0 Z " fill="#182D3B" transform="translate(53,407)"/>
<path d="M0 0 C2.97 0.33 5.94 0.66 9 1 C5.23312136 2.88343932 3.97041037 3.22057835 0 3 C0 2.01 0 1.02 0 0 Z " fill="#901FAC" transform="translate(443,392)"/>
<path d="M0 0 C2.97 0.33 5.94 0.66 9 1 C9 1.33 9 1.66 9 2 C8.195625 2.12375 7.39125 2.2475 6.5625 2.375 C5.2940625 2.684375 5.2940625 2.684375 4 3 C3.67 3.66 3.34 4.32 3 5 C1.5 3.625 1.5 3.625 0 2 C0 1.34 0 0.68 0 0 Z " fill="#135768" transform="translate(216,104)"/>
<path d="M0 0 C0.66 0.33 1.32 0.66 2 1 C0.02 3.31 -1.96 5.62 -4 8 C-4.66 7.67 -5.32 7.34 -6 7 C-2.25 1.125 -2.25 1.125 0 0 Z " fill="#0C93AA" transform="translate(179,351)"/>
</svg>
