<svg width="329" height="329" viewBox="0 0 329 329" fill="none" xmlns="http://www.w3.org/2000/svg">
<path d="M205.385 324.447L186.26 326.994L183.627 327.32C177.465 328.039 171.205 328.416 164.868 328.433C158.531 328.45 152.27 328.105 146.106 327.419L143.467 327.107L124.33 324.662L129.221 286.383L148.358 288.828L150.376 289.067C155.092 289.593 159.893 289.858 164.765 289.845C170.334 289.83 175.809 289.455 181.167 288.741L200.292 286.195L205.385 324.447ZM65.1269 241.036L66.3969 242.653C72.3844 250.146 79.2126 256.939 86.7374 262.886L88.3574 264.148L103.69 275.864L80.2584 306.523L64.9289 294.807L62.8079 293.16C52.9818 285.394 44.0687 276.524 36.2501 266.739L34.5888 264.63L22.7918 249.363L53.3299 225.769L65.1269 241.036ZM306.523 248.612L294.807 263.942C286.112 275.319 275.961 285.523 264.63 294.278L249.363 306.075L225.769 275.541L241.036 263.744C249.714 257.039 257.489 249.222 264.148 240.51L275.864 225.18L306.523 248.612ZM0.434085 164.868C0.414932 157.625 0.867742 150.481 1.7637 143.467L4.20902 124.33L42.4842 129.221L40.0388 148.358C39.3538 153.72 39.0075 159.197 39.0222 164.765C39.0369 170.334 39.4123 175.809 40.1257 181.167L42.6723 200.292L4.42357 205.385L1.87697 186.26L1.54737 183.627C0.828179 177.465 0.45086 171.205 0.434085 164.868ZM289.845 164.102C289.832 159.229 289.541 154.43 288.991 149.716L288.741 147.7L286.195 128.575L324.447 123.482L326.994 142.607L327.32 145.244C328.039 151.404 328.416 157.663 328.433 163.999C328.452 171.242 328.003 178.386 327.107 185.4L324.662 204.537L286.383 199.646L288.828 180.509L289.067 178.494C289.593 173.777 289.858 168.975 289.845 164.102ZM103.101 53.3299L87.8306 65.1269L86.2173 66.3969C78.189 72.812 70.9617 80.1895 64.7192 88.3574L53.0068 103.69L22.3442 80.2584L34.0602 64.9289L35.7103 62.8079C44.0315 52.2804 53.6175 42.7967 64.2401 34.5888L79.5074 22.7918L103.101 53.3299ZM263.942 34.0602L266.059 35.7103C275.885 43.477 284.802 52.343 292.62 62.1279L294.278 64.2401L306.075 79.5074L275.541 103.101L263.744 87.8306L262.474 86.2173C256.486 78.7241 249.658 71.932 242.133 65.9842L240.51 64.7192L225.18 53.0068L248.612 22.3442L263.942 34.0602ZM163.999 0.434085C170.337 0.417311 176.599 0.761489 182.764 1.44804L185.4 1.7637L204.537 4.20902L199.646 42.4842L180.509 40.0388C175.147 39.3538 169.671 39.0074 164.102 39.0222C158.533 39.0369 153.058 39.4123 147.7 40.1257L128.575 42.6723L123.482 4.42357L142.607 1.87697C149.615 0.943893 156.757 0.45327 163.999 0.434085Z" fill="#E84125"/>
</svg>
